
<?xml version="1.0" encoding="UTF-8"?>
<svg width="20" height="23" viewBox="0 0 20 23" fill="none" xmlns="http://www.w3.org/2000/svg">
  <path d="M2.24186 4.44339L0.759277 5.18483V18.1977L2.24186 18.9348L2.25078 18.9241V4.4536L2.24186 4.44339Z" fill="#8C3123"/>
  <path d="M10.1762 17.0461L2.2417 18.9348V4.44339L10.1762 6.29094V17.0461Z" fill="#E05243"/>
  <path d="M6.59473 14.0891L9.9603 14.5175L9.98144 14.4688L10.0003 8.95008L9.9603 8.90695L6.59473 9.32921V14.0891Z" fill="#8C3123"/>
  <path d="M9.96045 17.0673L17.679 18.9388L17.6911 18.9195L17.6909 4.45633L17.6787 4.44339L9.96045 6.31215V17.0673" fill="#8C3123"/>
  <path d="M13.327 14.0891L9.96045 14.5175V8.90695L13.327 9.32921V14.0891Z" fill="#E05243"/>
  <path d="M13.3268 7.02734L9.9603 7.64089L6.59473 7.02734L9.95606 6.1463L13.3268 7.02734Z" fill="#5E1F18"/>
  <path d="M6.59473 7.02735L9.9603 6.19448L9.98755 6.18607V0.606607L9.9603 0.584106L6.59473 2.26718V7.02735Z" fill="#8C3123"/>
  <path d="M13.327 7.02735L9.96045 6.19448V0.584106L13.327 2.26718V7.02735Z" fill="#E05243"/>
  <path d="M9.96066 22.8278L6.59473 21.1453V16.3852L9.96066 17.2178L10.0102 17.274L9.99675 22.7306L9.96066 22.8278Z" fill="#8C3123"/>
  <path fill-rule="evenodd" clip-rule="evenodd" d="M19.1622 5.18483L17.679 4.44339V18.9388L19.1622 18.1977V5.18483ZM13.3267 21.1453L9.96045 22.8278V17.2177L13.3267 16.3852V21.1453Z" fill="#E05243"/>
</svg>
