
<?xml version="1.0" encoding="UTF-8"?>
<svg width="14" height="17" viewBox="0 0 14 17" fill="none" xmlns="http://www.w3.org/2000/svg">
  <path fill-rule="evenodd" clip-rule="evenodd" d="M7.2627 0.00946045C5.54639 0.00946045 3.98644 0.324619 2.81087 0.873676C1.6353 1.42272 0.762695 2.25482 0.762695 3.3141V12.7062C0.762695 13.7655 1.6353 14.5922 2.81087 15.1412C3.98644 15.6903 5.54639 16.0109 7.2627 16.0109C8.97901 16.0109 10.5389 15.6903 11.7145 15.1412C12.8901 14.5922 13.7627 13.7655 13.7627 12.7062V3.3141C13.7627 2.25482 12.8901 1.42272 11.7145 0.873676C10.5389 0.324619 8.97901 0.00946045 7.2627 0.00946045ZM7.2627 1.05294C8.83708 1.05294 10.2596 1.3557 11.2406 1.81381C12.2215 2.27191 12.6794 2.83619 12.6794 3.31381C12.6794 3.79143 12.2215 4.35028 11.2406 4.80838C10.2596 5.26647 8.83708 5.57468 7.2627 5.57468C5.68832 5.57468 4.26576 5.26647 3.28483 4.80838C2.30391 4.35028 1.84603 3.79143 1.84603 3.31381C1.84603 2.83619 2.30391 2.27191 3.28483 1.81381C4.26576 1.3557 5.68832 1.05294 7.2627 1.05294ZM2.81087 5.74859C2.45783 5.58372 2.12899 5.39709 1.84603 5.18337V6.44424C1.84603 6.92186 2.30391 7.48071 3.28483 7.93882C4.26576 8.39689 5.68832 8.70511 7.2627 8.70511C8.83708 8.70511 10.2596 8.39689 11.2406 7.93882C12.2215 7.48071 12.6794 6.92186 12.6794 6.44424V5.18337C12.3964 5.39709 12.0676 5.58372 11.7145 5.74859C10.5389 6.2976 8.97901 6.61815 7.2627 6.61815C5.54639 6.61815 3.98644 6.2976 2.81087 5.74859ZM1.84603 8.30294C2.13039 8.51852 2.45486 8.71277 2.81087 8.87903C3.98644 9.42803 5.54639 9.74859 7.2627 9.74859C8.97901 9.74859 10.5389 9.42803 11.7145 8.87903C12.0705 8.71277 12.395 8.51852 12.6794 8.30294V9.57468C12.6794 10.0523 12.2215 10.6111 11.2406 11.0693C10.2596 11.5273 8.83708 11.8355 7.2627 11.8355C5.68832 11.8355 4.26576 11.5273 3.28483 11.0693C2.30391 10.6111 1.84603 10.0523 1.84603 9.57468V8.30294ZM2.81087 12.0105C2.45486 11.8442 2.13039 11.65 1.84603 11.4344V12.7061C1.84603 13.1837 2.30391 13.7426 3.28483 14.2007C4.26576 14.6588 5.68832 14.967 7.2627 14.967C8.83708 14.967 10.2596 14.6588 11.2406 14.2007C12.2215 13.7426 12.6794 13.1837 12.6794 12.7061V11.4344C12.395 11.65 12.0705 11.8442 11.7145 12.0105C10.5389 12.5595 8.97901 12.88 7.2627 12.88C5.54639 12.88 3.98644 12.5595 2.81087 12.0105Z" fill="#ECF3FF"/>
</svg>
