
<?xml version="1.0" encoding="UTF-8"?>
<svg width="17" height="17" viewBox="0 0 17 17" fill="none" xmlns="http://www.w3.org/2000/svg">
  <path fill-rule="evenodd" clip-rule="evenodd" d="M0.262695 4.08498C0.262695 4.0581 0.265856 4.03132 0.272113 4.00519L0.274289 3.9961C0.292457 3.92021 0.337883 3.85364 0.401927 3.80906C0.415223 3.7998 0.429205 3.79157 0.443753 3.78445L8.03686 0.0651339C8.10689 0.0308328 8.18383 0.0130005 8.26181 0.0130005C8.34092 0.0130005 8.41896 0.0313572 8.48977 0.0666264L16.099 3.85624C16.1283 3.87082 16.1549 3.89036 16.1775 3.91398C16.2074 3.94518 16.2297 3.9828 16.2429 4.02395L16.2467 4.03593C16.2573 4.06917 16.2627 4.10385 16.2627 4.13874V11.4479C16.2627 11.7587 16.1169 12.0514 15.869 12.2388C15.8239 12.2728 15.7761 12.3029 15.7259 12.3288L8.86683 15.867C8.67907 15.9639 8.47087 16.0144 8.2596 16.0144C8.05229 16.0144 7.84787 15.9658 7.66279 15.8723L0.856791 12.4372C0.80575 12.4115 0.756832 12.3817 0.710497 12.3482C0.429259 12.1449 0.262695 11.8189 0.262695 11.4719V4.08498ZM7.72206 8.813L2.80996 6.23638L1.30415 5.47101V11.3515L7.72206 14.6935V8.813ZM8.76352 8.77144L15.1814 5.47101V11.31L8.76352 14.652V8.77144ZM14.8232 4.2762L8.2627 1.10045L1.70216 4.2762L3.68558 5.24936L8.2627 7.53508L14.8232 4.2762Z" fill="#ECF3FF"/>
</svg>
